<svg width="139" height="32" viewBox="0 0 139 32" fill="none" xmlns="http://www.w3.org/2000/svg">
<path d="M12.5 5C11.43 5 10.498 5.608 9.906 6.438C9.314 7.268 9 8.34 9 9.5C9 10.66 9.314 11.733 9.906 12.563C10.498 13.393 11.43 14 12.5 14C13.57 14 14.502 13.392 15.094 12.562C15.686 11.732 16 10.66 16 9.5C16 8.34 15.686 7.267 15.094 6.437C14.502 5.607 13.57 5 12.5 5ZM16 9.5C16 10.66 16.314 11.733 16.906 12.563C17.498 13.393 18.431 14 19.5 14C20.57 14 21.502 13.392 22.094 12.562C22.686 11.732 23 10.66 23 9.5C23 8.34 22.686 7.267 22.094 6.437C21.502 5.607 20.57 5 19.5 5C18.43 5 17.498 5.608 16.906 6.438C16.314 7.268 16 8.34 16 9.5ZM12.5 7C12.812 7 13.156 7.156 13.47 7.594C13.78 8.031 14 8.727 14 9.5C14 10.273 13.78 10.97 13.47 11.406C13.156 11.844 12.812 12 12.5 12C12.188 12 11.844 11.844 11.53 11.406C11.22 10.969 11 10.273 11 9.5C11 8.727 11.22 8.03 11.53 7.594C11.844 7.156 12.188 7 12.5 7ZM19.5 7C19.812 7 20.156 7.156 20.47 7.594C20.78 8.031 21 8.727 21 9.5C21 10.273 20.78 10.97 20.47 11.406C20.156 11.844 19.812 12 19.5 12C19.188 12 18.844 11.844 18.53 11.406C18.22 10.969 18 10.273 18 9.5C18 8.727 18.22 8.03 18.53 7.594C18.844 7.156 19.188 7 19.5 7ZM7.5 12C6.43 12 5.498 12.608 4.906 13.438C4.314 14.268 4 15.34 4 16.5C4 17.66 4.314 18.733 4.906 19.563C5.498 20.393 6.43 21 7.5 21C8.57 21 9.502 20.392 10.094 19.562C10.686 18.732 11 17.66 11 16.5C11 15.34 10.686 14.267 10.094 13.437C9.502 12.607 8.57 12 7.5 12ZM24.5 12C23.43 12 22.498 12.608 21.906 13.438C21.314 14.268 21 15.34 21 16.5C21 17.66 21.314 18.733 21.906 19.563C22.498 20.393 23.43 21 24.5 21C25.57 21 26.502 20.392 27.094 19.562C27.686 18.732 28 17.66 28 16.5C28 15.34 27.686 14.267 27.094 13.437C26.502 12.607 25.57 12 24.5 12ZM7.5 14C7.812 14 8.156 14.156 8.47 14.594C8.78 15.031 9 15.727 9 16.5C9 17.273 8.78 17.97 8.47 18.406C8.156 18.844 7.812 19 7.5 19C7.188 19 6.844 18.844 6.53 18.406C6.22 17.97 6 17.273 6 16.5C6 15.727 6.22 15.03 6.53 14.594C6.844 14.156 7.188 14 7.5 14ZM24.5 14C24.812 14 25.156 14.156 25.47 14.594C25.78 15.031 26 15.727 26 16.5C26 17.273 25.78 17.97 25.47 18.406C25.156 18.844 24.812 19 24.5 19C24.188 19 23.844 18.844 23.53 18.406C23.22 17.969 23 17.273 23 16.5C23 15.727 23.22 15.03 23.53 14.594C23.844 14.156 24.188 14 24.5 14ZM16 16C14.667 16 13.737 16.865 13.28 17.625C12.826 18.385 12.546 19.017 12.28 19.281C12.127 19.438 11.162 19.801 10.156 20.314C9.653 20.571 9.146 20.914 8.719 21.439C8.289 21.964 7.999 22.689 7.999 23.502C7.999 25.422 9.579 27.002 11.499 27.002C12.365 27.002 13.269 26.722 14.154 26.472C15.043 26.216 16 26 16 26C16 26 16.957 26.216 17.844 26.47C18.73 26.72 19.634 27 20.5 27C22.42 27 24 25.42 24 23.5C24 22.706 23.707 21.98 23.28 21.47C22.855 20.957 22.343 20.64 21.844 20.375C20.844 19.845 19.861 19.425 19.719 19.281C19.479 19.044 19.209 18.391 18.749 17.627C18.29 16.86 17.34 16 16 16ZM16 18C16.66 18 16.733 18.16 17.03 18.656C17.33 19.151 17.554 19.992 18.28 20.719C19.105 21.539 20.147 21.719 20.906 22.123C21.286 22.325 21.576 22.54 21.75 22.748C21.923 22.955 22 23.144 22 23.498C22 24.338 21.34 24.998 20.5 24.998C20.21 24.998 19.276 24.778 18.406 24.528C17.536 24.281 16.816 23.998 16 23.998C15.184 23.998 14.464 24.281 13.594 24.528C12.724 24.778 11.79 24.998 11.5 24.998C10.66 24.998 10 24.338 10 23.498C10 23.095 10.084 22.888 10.25 22.684C10.416 22.481 10.722 22.28 11.094 22.091C11.838 21.711 12.874 21.561 13.719 20.716C14.452 19.979 14.672 19.111 14.969 18.621C15.261 18.131 15.331 17.996 15.999 17.996L16 18Z" fill="white"/>
<path d="M60.9 11.5C61.9667 11.5 62.9083 11.7083 63.725 12.125C64.5583 12.5417 65.2083 13.1833 65.675 14.05C66.1417 14.9 66.375 16 66.375 17.35V25H63.25V17.75C63.25 16.5667 62.9917 15.6833 62.475 15.1C61.9583 14.5167 61.2167 14.225 60.25 14.225C59.5667 14.225 58.9583 14.375 58.425 14.675C57.9083 14.975 57.5 15.4167 57.2 16C56.9167 16.5833 56.775 17.325 56.775 18.225V25H53.65V17.75C53.65 16.5667 53.3917 15.6833 52.875 15.1C52.3583 14.5167 51.6167 14.225 50.65 14.225C49.9667 14.225 49.3583 14.375 48.825 14.675C48.3083 14.975 47.9 15.4167 47.6 16C47.3167 16.5833 47.175 17.325 47.175 18.225V25H44.05V11.65H47.025V15.2L46.5 14.15C46.95 13.2833 47.6 12.625 48.45 12.175C49.3167 11.725 50.3 11.5 51.4 11.5C52.65 11.5 53.7333 11.8083 54.65 12.425C55.5833 13.0417 56.2 13.975 56.5 15.225L55.275 14.8C55.7083 13.8 56.425 13 57.425 12.4C58.425 11.8 59.5833 11.5 60.9 11.5ZM78.5934 25V22.3L78.4184 21.725V17C78.4184 16.0833 78.1434 15.375 77.5934 14.875C77.0434 14.3583 76.21 14.1 75.0934 14.1C74.3434 14.1 73.6017 14.2167 72.8684 14.45C72.1517 14.6833 71.5434 15.0083 71.0434 15.425L69.8184 13.15C70.535 12.6 71.385 12.1917 72.3684 11.925C73.3684 11.6417 74.4017 11.5 75.4684 11.5C77.4017 11.5 78.8934 11.9667 79.9434 12.9C81.01 13.8167 81.5434 15.2417 81.5434 17.175V25H78.5934ZM74.3934 25.175C73.3934 25.175 72.5184 25.0083 71.7684 24.675C71.0184 24.325 70.435 23.85 70.0184 23.25C69.6184 22.6333 69.4184 21.9417 69.4184 21.175C69.4184 20.425 69.5934 19.75 69.9434 19.15C70.31 18.55 70.9017 18.075 71.7184 17.725C72.535 17.375 73.6184 17.2 74.9684 17.2H78.8434V19.275H75.1934C74.1267 19.275 73.41 19.45 73.0434 19.8C72.6767 20.1333 72.4934 20.55 72.4934 21.05C72.4934 21.6167 72.7184 22.0667 73.1684 22.4C73.6184 22.7333 74.2434 22.9 75.0434 22.9C75.81 22.9 76.4934 22.725 77.0934 22.375C77.71 22.025 78.1517 21.5083 78.4184 20.825L78.9434 22.7C78.6434 23.4833 78.1017 24.0917 77.3184 24.525C76.5517 24.9583 75.5767 25.175 74.3934 25.175ZM85.5539 25V11.65H88.6789V25H85.5539ZM87.1289 9.45C86.5456 9.45 86.0622 9.26667 85.6789 8.9C85.3122 8.53333 85.1289 8.09167 85.1289 7.575C85.1289 7.04167 85.3122 6.6 85.6789 6.25C86.0622 5.88333 86.5456 5.7 87.1289 5.7C87.7122 5.7 88.1872 5.875 88.5539 6.225C88.9372 6.55833 89.1289 6.98333 89.1289 7.5C89.1289 8.05 88.9456 8.51667 88.5789 8.9C88.2122 9.26667 87.7289 9.45 87.1289 9.45ZM92.7805 25V6.45H95.9055V25H92.7805ZM106.132 25.175C104.732 25.175 103.482 24.8833 102.382 24.3C101.299 23.7 100.449 22.8833 99.832 21.85C99.2154 20.8167 98.907 19.6417 98.907 18.325C98.907 16.9917 99.2154 15.8167 99.832 14.8C100.449 13.7667 101.299 12.9583 102.382 12.375C103.482 11.7917 104.732 11.5 106.132 11.5C107.432 11.5 108.574 11.7667 109.557 12.3C110.557 12.8167 111.315 13.5833 111.832 14.6L109.432 16C109.032 15.3667 108.54 14.9 107.957 14.6C107.39 14.3 106.774 14.15 106.107 14.15C105.34 14.15 104.649 14.3167 104.032 14.65C103.415 14.9833 102.932 15.4667 102.582 16.1C102.232 16.7167 102.057 17.4583 102.057 18.325C102.057 19.1917 102.232 19.9417 102.582 20.575C102.932 21.1917 103.415 21.6667 104.032 22C104.649 22.3333 105.34 22.5 106.107 22.5C106.774 22.5 107.39 22.35 107.957 22.05C108.54 21.75 109.032 21.2833 109.432 20.65L111.832 22.05C111.315 23.05 110.557 23.825 109.557 24.375C108.574 24.9083 107.432 25.175 106.132 25.175ZM122.758 25V22.3L122.583 21.725V17C122.583 16.0833 122.308 15.375 121.758 14.875C121.208 14.3583 120.375 14.1 119.258 14.1C118.508 14.1 117.767 14.2167 117.033 14.45C116.317 14.6833 115.708 15.0083 115.208 15.425L113.983 13.15C114.7 12.6 115.55 12.1917 116.533 11.925C117.533 11.6417 118.567 11.5 119.633 11.5C121.567 11.5 123.058 11.9667 124.108 12.9C125.175 13.8167 125.708 15.2417 125.708 17.175V25H122.758ZM118.558 25.175C117.558 25.175 116.683 25.0083 115.933 24.675C115.183 24.325 114.6 23.85 114.183 23.25C113.783 22.6333 113.583 21.9417 113.583 21.175C113.583 20.425 113.758 19.75 114.108 19.15C114.475 18.55 115.067 18.075 115.883 17.725C116.7 17.375 117.783 17.2 119.133 17.2H123.008V19.275H119.358C118.292 19.275 117.575 19.45 117.208 19.8C116.842 20.1333 116.658 20.55 116.658 21.05C116.658 21.6167 116.883 22.0667 117.333 22.4C117.783 22.7333 118.408 22.9 119.208 22.9C119.975 22.9 120.658 22.725 121.258 22.375C121.875 22.025 122.317 21.5083 122.583 20.825L123.108 22.7C122.808 23.4833 122.267 24.0917 121.483 24.525C120.717 24.9583 119.742 25.175 118.558 25.175ZM134.744 25.175C133.277 25.175 132.144 24.8 131.344 24.05C130.544 23.2833 130.144 22.1583 130.144 20.675V8.7H133.269V20.6C133.269 21.2333 133.427 21.725 133.744 22.075C134.077 22.425 134.536 22.6 135.119 22.6C135.819 22.6 136.402 22.4167 136.869 22.05L137.744 24.275C137.377 24.575 136.927 24.8 136.394 24.95C135.861 25.1 135.311 25.175 134.744 25.175ZM127.944 14.25V11.75H136.844V14.25H127.944Z" fill="white"/>
</svg>
